<svg xmlns="http://www.w3.org/2000/svg"  viewBox="0 0 80 80" width="80px" height="80px"><path d="M 14 10 C 11.800781 10 10 11.800781 10 14 L 10 46 C 10 48.199219 11.800781 50 14 50 L 30 50 L 30 66 C 30 68.199219 31.800781 70 34 70 L 66 70 C 68.199219 70 70 68.199219 70 66 L 70 34 C 70 31.800781 68.199219 30 66 30 L 50 30 L 50 14 C 50 11.800781 48.199219 10 46 10 Z M 14 12 L 46 12 C 47.117188 12 48 12.882813 48 14 L 48 32 L 66 32 C 67.117188 32 68 32.882813 68 34 L 68 66 C 68 67.117188 67.117188 68 66 68 L 34 68 C 32.882813 68 32 67.117188 32 66 L 32 48 L 14 48 C 12.882813 48 12 47.117188 12 46 L 12 14 C 12 12.882813 12.882813 12 14 12 Z M 16 15 C 15.449219 15 15 15.449219 15 16 C 15 16.550781 15.449219 17 16 17 C 16.550781 17 17 16.550781 17 16 C 17 15.449219 16.550781 15 16 15 Z M 20 15 C 19.449219 15 19 15.449219 19 16 C 19 16.550781 19.449219 17 20 17 C 20.550781 17 21 16.550781 21 16 C 21 15.449219 20.550781 15 20 15 Z M 24 15 C 23.449219 15 23 15.449219 23 16 C 23 16.550781 23.449219 17 24 17 C 24.550781 17 25 16.550781 25 16 C 25 15.449219 24.550781 15 24 15 Z M 28 15 C 27.449219 15 27 15.449219 27 16 C 27 16.550781 27.449219 17 28 17 C 28.550781 17 29 16.550781 29 16 C 29 15.449219 28.550781 15 28 15 Z M 32 15 C 31.449219 15 31 15.449219 31 16 C 31 16.550781 31.449219 17 32 17 C 32.550781 17 33 16.550781 33 16 C 33 15.449219 32.550781 15 32 15 Z M 36 15 C 35.449219 15 35 15.449219 35 16 C 35 16.550781 35.449219 17 36 17 C 36.550781 17 37 16.550781 37 16 C 37 15.449219 36.550781 15 36 15 Z M 40 15 C 39.449219 15 39 15.449219 39 16 C 39 16.550781 39.449219 17 40 17 C 40.550781 17 41 16.550781 41 16 C 41 15.449219 40.550781 15 40 15 Z M 44 15 C 43.449219 15 43 15.449219 43 16 C 43 16.550781 43.449219 17 44 17 C 44.550781 17 45 16.550781 45 16 C 45 15.449219 44.550781 15 44 15 Z M 29 21 L 29 23 L 20 23 L 20 25 L 34.953125 25 C 34.636719 28.710938 32.558594 31.480469 30.105469 33.53125 C 28.800781 32.789063 27.546875 31.890625 26.625 30.851563 C 25.613281 29.714844 25 28.464844 25 27 L 23 27 C 23 29.035156 23.886719 30.785156 25.125 32.179688 C 26.0625 33.234375 27.199219 34.105469 28.375 34.839844 C 25.046875 37.082031 21.722656 38.039063 21.722656 38.039063 L 22.277344 39.960938 C 22.277344 39.960938 25.914063 38.929688 29.5625 36.453125 C 29.8125 36.285156 30.058594 36.089844 30.3125 35.90625 C 33.152344 37.316406 35.757813 37.96875 35.757813 37.96875 L 36.242188 36.03125 C 36.242188 36.03125 34.296875 35.53125 32.019531 34.503906 C 34.53125 32.210938 36.660156 29.082031 36.960938 25 L 40 25 L 40 23 L 31 23 L 31 21 Z M 46 33 C 45.449219 33 45 33.449219 45 34 C 45 34.550781 45.449219 35 46 35 C 46.550781 35 47 34.550781 47 34 C 47 33.449219 46.550781 33 46 33 Z M 43 36 C 42.449219 36 42 36.449219 42 37 C 42 37.550781 42.449219 38 43 38 C 43.550781 38 44 37.550781 44 37 C 44 36.449219 43.550781 36 43 36 Z M 40 39 C 39.449219 39 39 39.449219 39 40 C 39 40.550781 39.449219 41 40 41 C 40.550781 41 41 40.550781 41 40 C 41 39.449219 40.550781 39 40 39 Z M 48.425781 41 L 42.890625 57 L 45.714844 57 L 47.050781 52.851563 L 52.796875 52.851563 L 54.113281 57 L 57.109375 57 L 51.5625 41 Z M 37 42 C 36.449219 42 36 42.449219 36 43 C 36 43.550781 36.449219 44 37 44 C 37.550781 44 38 43.550781 38 43 C 38 42.449219 37.550781 42 37 42 Z M 49.84375 44.046875 L 50.027344 44.046875 L 52.144531 50.777344 L 47.703125 50.777344 Z M 34 45 C 33.449219 45 33 45.449219 33 46 C 33 46.550781 33.449219 47 34 47 C 34.550781 47 35 46.550781 35 46 C 35 45.449219 34.550781 45 34 45 Z M 36 63 C 35.449219 63 35 63.449219 35 64 C 35 64.550781 35.449219 65 36 65 C 36.550781 65 37 64.550781 37 64 C 37 63.449219 36.550781 63 36 63 Z M 40 63 C 39.449219 63 39 63.449219 39 64 C 39 64.550781 39.449219 65 40 65 C 40.550781 65 41 64.550781 41 64 C 41 63.449219 40.550781 63 40 63 Z M 44 63 C 43.449219 63 43 63.449219 43 64 C 43 64.550781 43.449219 65 44 65 C 44.550781 65 45 64.550781 45 64 C 45 63.449219 44.550781 63 44 63 Z M 48 63 C 47.449219 63 47 63.449219 47 64 C 47 64.550781 47.449219 65 48 65 C 48.550781 65 49 64.550781 49 64 C 49 63.449219 48.550781 63 48 63 Z M 52 63 C 51.449219 63 51 63.449219 51 64 C 51 64.550781 51.449219 65 52 65 C 52.550781 65 53 64.550781 53 64 C 53 63.449219 52.550781 63 52 63 Z M 56 63 C 55.449219 63 55 63.449219 55 64 C 55 64.550781 55.449219 65 56 65 C 56.550781 65 57 64.550781 57 64 C 57 63.449219 56.550781 63 56 63 Z M 60 63 C 59.449219 63 59 63.449219 59 64 C 59 64.550781 59.449219 65 60 65 C 60.550781 65 61 64.550781 61 64 C 61 63.449219 60.550781 63 60 63 Z M 64 63 C 63.449219 63 63 63.449219 63 64 C 63 64.550781 63.449219 65 64 65 C 64.550781 65 65 64.550781 65 64 C 65 63.449219 64.550781 63 64 63 Z"/></svg>